<?xml version="1.0" encoding="utf-8"?>
<!-- Generator: Adobe Illustrator 20.0.0, SVG Export Plug-In . SVG Version: 6.00 Build 0)  -->
<svg version="1.1" id="レイヤー_1" xmlns="http://www.w3.org/2000/svg" xmlns:xlink="http://www.w3.org/1999/xlink" x="0px"
	 y="0px" width="80" height="25" viewBox="0 0 257.7 82" style="enable-background:new 0 0 257.7 82;" xml:space="preserve">
<style type="text/css">
	.st0{fill:#FFFFFF;}
	.st1{fill:#FFFFFF;}
</style>
<g>
	<g>
		<g>
			<path class="st0" d="M175.3,16.9v45c0,2.2,1.8,4.1,4.1,4.1c2.2,0,4.1-1.8,4.1-4.1v-45c0-2.2-1.8-4.1-4.1-4.1
				C177.1,12.8,175.3,14.6,175.3,16.9z"/>
		</g>
		<path class="st0" d="M158.5,12.8c-2.2,0-4.1,1.8-4.1,4.1V50c0,4.3-3.5,7.8-7.8,7.8c-4.3,0-7.8-3.5-7.8-7.8V16.9
			c0-2.2-1.8-4.1-4.1-4.1c-2.2,0-4.1,1.8-4.1,4.1V50c0,4.3-3.5,7.8-7.8,7.8c-4.3,0-7.8-3.5-7.8-7.8V16.9c0-2.2-1.8-4.1-4.1-4.1
			c-2.2,0-4.1,1.8-4.1,4.1V50c0,8.8,7.2,16,16,16c4.7,0,9-2.1,11.9-5.4c2.9,3.3,7.2,5.4,11.9,5.4c8.8,0,16-7.2,16-16V16.9
			C162.6,14.6,160.7,12.8,158.5,12.8z"/>
		<g>
			<path class="st0" d="M200.6,12.8c-2.2,0-4.1,1.8-4.1,4.1v45c0,2.2,1.8,4.1,4.1,4.1c2.2,0,4.1-1.8,4.1-4.1v-45
				C204.7,14.6,202.8,12.8,200.6,12.8z"/>
			<path class="st0" d="M218.3,39.1c4-4.2,18.5-19.4,18.5-19.4c0.8-0.8,1.1-1.8,1.1-2.8c0-1.1-0.4-2.1-1.3-2.9
				c-1.6-1.6-4.2-1.5-5.7,0.1l-21.2,22.2c-1.5,1.6-1.5,4,0,5.6L231,64.7c1.5,1.6,4.1,1.7,5.7,0.2c0.9-0.8,1.3-1.9,1.3-3
				c0-1-0.4-2-1.1-2.8C236.9,59.2,222.3,43.5,218.3,39.1z"/>
		</g>
		<g>
			<path class="st0" d="M252.8,54c2.2,0,4.1-1.8,4.1-4.1V17c0-2.2-1.8-4.1-4.1-4.1c-2.2,0-4.1,1.8-4.1,4.1v33
				C248.8,52.2,250.6,54,252.8,54z"/>
			<circle class="st0" cx="252.8" cy="61.1" r="4.9"/>
		</g>
	</g>
	<g>
		<path class="st1" d="M34.2,41.1c0,6.5,5.3,11.7,11.7,11.7c6.5,0,11.7-5.3,11.7-11.8c0-6.5-5.3-11.7-11.7-11.7
			C39.5,29.4,34.2,34.6,34.2,41.1z"/>
		<path class="st1" d="M91.5,80.9V23.2C91.5,10.4,81.1,0,68.4,0H23.2C10.4,0,0,10.4,0,23.2v26.2c0,12.7,10.4,23.2,23.2,23.2h2.4
			c-8.3-7.8-11.9-17.9-11.9-31.2c0-15.8,11.5-32.6,32.8-32.6c17.5,0,31.8,14.3,31.8,31.8c0,12.6-3.6,18.9-10.6,18.9
			c-4.8,0-7.3-3-8.6-6.6c-3.2,3.7-8,6-13.2,6c-9.8,0-17.7-8-17.7-17.7c0-9.8,8-17.7,17.7-17.7c9.8,0,17.7,7.9,17.7,17.7
			c0,12.5,3.1,12.4,4.1,12.4c4,0,4.6-8.1,4.6-13c0-14.2-11.6-25.8-25.8-25.8c-17.4,0-26.9,13.7-26.9,26.6c0,13,3.3,23.3,15.7,31.2
			h43.1L89,81.5C90.1,82.5,91.5,82,91.5,80.9z"/>
	</g>
</g>
</svg>
